<svg width="150" height="150" viewBox="0 0 150 150" fill="none" xmlns="http://www.w3.org/2000/svg">
<g opacity="0.91">
<path d="M47.1859 81.4199C47.0598 81.7994 46.9415 82.1829 46.8311 82.5703C47.7587 84.8768 48.832 87.1216 50.0443 89.2913C48.7199 86.8188 47.7573 84.1675 47.1859 81.4199ZM101.736 90.1176C101.618 90.3231 101.5 90.5129 101.373 90.7224C101.524 90.5367 101.665 90.3469 101.803 90.1571L101.736 90.1176Z" fill="#3FA9F5"/>
</g>
<path d="M127.349 104.964C122.221 113.878 114.868 121.301 106.012 126.502C97.1566 131.703 87.1036 134.505 76.8417 134.63C66.5797 134.755 56.4617 132.2 47.4824 127.216C38.5032 122.233 30.9719 114.992 25.6289 106.205C31.6534 109.592 38.2244 111.893 45.0425 113.002L45.8705 113.12C54.0966 114.358 62.4908 113.838 70.5019 111.592C78.513 109.347 85.9602 105.428 92.3547 100.093C96.0187 97.6819 99.1026 94.4847 101.383 90.7314C101.533 90.5455 101.675 90.3558 101.813 90.166L127.349 104.964Z" fill="url(#paint0_linear_374_1550)"/>
<path d="M92.3459 100.101C85.9515 105.434 78.5054 109.35 70.4959 111.594C62.486 113.837 54.0939 114.358 45.8696 113.12L45.0613 112.994C38.2433 111.885 31.6722 109.585 25.6477 106.197C20.8988 98.3867 18.0156 89.5806 17.2235 80.467C16.4313 71.3534 17.7516 62.1801 21.0813 53.663C24.4109 45.1461 29.6596 37.5167 36.4173 31.371C43.1748 25.2254 51.2582 20.73 60.0356 18.2363C50.8516 27.3565 44.9018 39.2439 43.0974 52.078C41.293 64.912 43.7334 77.9853 50.0449 89.2963C50.3958 89.9526 50.7703 90.597 51.1685 91.2213C51.1819 91.2482 51.1978 91.2737 51.2158 91.2969C53.324 94.6012 56.0649 97.4534 59.2798 99.6875C62.4951 101.922 66.1203 103.495 69.9459 104.314C73.7711 105.134 77.7208 105.184 81.5661 104.462C85.411 103.741 89.0749 102.261 92.3459 100.109V100.101Z" fill="url(#paint1_linear_374_1550)"/>
<path d="M127.132 45.2859C122.609 43.3119 117.858 41.9121 112.989 41.119C112.721 41.0755 112.45 41.0319 112.201 40.9964C100.83 39.2748 89.2036 40.9353 78.7634 45.7721C77.9016 45.6984 77.0287 45.6601 76.1455 45.6575C71.7447 45.6569 67.3995 46.6413 63.4261 48.5389C59.4531 50.4364 55.9523 53.1993 53.1795 56.6261C50.4066 60.0529 48.4315 64.057 47.3981 68.3465C46.3648 72.6361 46.2994 77.1028 47.2065 81.4207C47.0804 81.8003 46.9621 82.1838 46.8516 82.5712C42.4838 71.7379 41.4049 59.8521 43.7505 48.4063C46.0961 36.9603 51.7618 26.4644 60.0358 18.2361C72.6291 14.6666 86.0475 15.3863 98.1888 20.2826C110.331 25.1789 120.51 33.9753 127.132 45.2938V45.2859Z" fill="url(#paint2_linear_374_1550)"/>
<path d="M127.348 45.6538L113.711 53.5608L101.736 60.4833C99.3629 56.3605 96.0347 52.8712 92.0326 50.3107C88.0301 47.7501 83.472 46.1935 78.7432 45.7724C89.1833 40.9355 100.808 39.2751 112.181 40.9966C112.449 41.0322 112.721 41.0756 112.969 41.1191C117.838 41.9123 122.589 43.3121 127.111 45.2861C127.206 45.4087 127.277 45.5154 127.348 45.6538Z" fill="url(#paint3_linear_374_1550)"/>
<defs>
<linearGradient id="paint0_linear_374_1550" x1="25.6407" y1="112.392" x2="127.349" y2="112.392" gradientUnits="userSpaceOnUse">
<stop offset="0.45" stop-color="#0071BC"/>
<stop offset="1" stop-color="#29ABE2"/>
</linearGradient>
<linearGradient id="paint1_linear_374_1550" x1="16.9857" y1="66.0063" x2="92.3459" y2="66.0063" gradientUnits="userSpaceOnUse">
<stop offset="0.1" stop-color="#0071BC"/>
<stop offset="0.52" stop-color="#29ABE2"/>
</linearGradient>
<linearGradient id="paint2_linear_374_1550" x1="42.5187" y1="49.2908" x2="127.132" y2="49.2908" gradientUnits="userSpaceOnUse">
<stop stop-color="#005B97"/>
<stop offset="1" stop-color="#0075BE"/>
</linearGradient>
<linearGradient id="paint3_linear_374_1550" x1="78.7432" y1="50.4098" x2="127.348" y2="50.4098" gradientUnits="userSpaceOnUse">
<stop stop-color="#005B97"/>
<stop offset="1" stop-color="#0075BE"/>
</linearGradient>
</defs>
</svg>
